<svg xmlns="http://www.w3.org/2000/svg" xmlns:xlink="http://www.w3.org/1999/xlink" width="240" zoomAndPan="magnify" viewBox="0 0 180 179.999997" height="240" preserveAspectRatio="xMidYMid meet" version="1.0"><defs><g/><clipPath id="a9c1d370ac"><path d="M 90 180 C 65.972656 180 43.34375 170.648438 26.367188 153.632812 C 9.351562 136.65625 0 114.027344 0 90 C 0 65.972656 9.351562 43.34375 26.367188 26.367188 C 43.34375 9.351562 65.972656 0 90 0 C 114.027344 0 136.65625 9.351562 153.632812 26.367188 C 170.648438 43.382812 180 65.972656 180 90 C 180 114.027344 170.648438 136.65625 153.632812 153.632812 C 136.65625 170.648438 114.027344 180 90 180 Z M 90 5.394531 C 67.410156 5.394531 46.152344 14.207031 30.179688 30.179688 C 14.207031 46.152344 5.394531 67.410156 5.394531 90 C 5.394531 112.589844 14.207031 133.847656 30.179688 149.820312 C 46.152344 165.792969 67.410156 174.605469 90 174.605469 C 112.589844 174.605469 133.847656 165.792969 149.820312 149.820312 C 165.792969 133.847656 174.605469 112.589844 174.605469 90 C 174.605469 67.410156 165.792969 46.152344 149.820312 30.179688 C 133.847656 14.207031 112.589844 5.394531 90 5.394531 Z M 90 5.394531 " clip-rule="nonzero"/></clipPath></defs><g clip-path="url(#a9c1d370ac)"><rect x="-18" width="216" fill="#000000" y="-18" height="215.999996" fill-opacity="1"/></g><g fill="#000000" fill-opacity="1"><g transform="translate(27.893482, 86.418785)"><g><path d="M -7.734375 -9.9375 L -6.390625 -16.8125 L 2.203125 -15.125 C 2.460938 -13.125 2.378906 -11.007812 1.953125 -8.78125 C 1.460938 -6.332031 0.378906 -4.578125 -1.296875 -3.515625 C -2.984375 -2.460938 -5.144531 -2.191406 -7.78125 -2.703125 C -10.351562 -3.203125 -12.207031 -4.320312 -13.34375 -6.0625 C -14.488281 -7.8125 -14.800781 -10.003906 -14.28125 -12.640625 C -14.082031 -13.648438 -13.800781 -14.578125 -13.4375 -15.421875 C -13.082031 -16.273438 -12.703125 -17.007812 -12.296875 -17.625 L -9.171875 -15.59375 C -9.960938 -14.5625 -10.492188 -13.359375 -10.765625 -11.984375 C -11.003906 -10.734375 -10.78125 -9.679688 -10.09375 -8.828125 C -9.414062 -7.984375 -8.316406 -7.414062 -6.796875 -7.125 C -5.304688 -6.832031 -4.113281 -6.921875 -3.21875 -7.390625 C -2.320312 -7.859375 -1.757812 -8.675781 -1.53125 -9.84375 C -1.40625 -10.488281 -1.351562 -11.085938 -1.375 -11.640625 L -3.859375 -12.125 L -4.40625 -9.28125 Z M -7.734375 -9.9375 "/></g></g></g><g fill="#000000" fill-opacity="1"><g transform="translate(30.697983, 71.550527)"><g><path d="M 4.296875 -9.53125 L 2.65625 -9.671875 L 2.546875 -9.4375 C 2.921875 -8.875 3.113281 -8.234375 3.125 -7.515625 C 3.144531 -6.796875 2.972656 -6.039062 2.609375 -5.25 C 2.046875 -3.988281 1.238281 -3.171875 0.1875 -2.796875 C -0.863281 -2.429688 -2.050781 -2.546875 -3.375 -3.140625 L -10.84375 -6.515625 L -9.0625 -10.46875 L -2.8125 -7.640625 C -2.0625 -7.304688 -1.441406 -7.15625 -0.953125 -7.1875 C -0.472656 -7.226562 -0.125 -7.492188 0.09375 -7.984375 C 0.394531 -8.660156 0.34375 -9.265625 -0.0625 -9.796875 C -0.46875 -10.335938 -1.304688 -10.894531 -2.578125 -11.46875 L -7.59375 -13.734375 L -5.8125 -17.671875 L 5.640625 -12.5 Z M 4.296875 -9.53125 "/></g></g></g><g fill="#000000" fill-opacity="1"><g transform="translate(36.650814, 58.889226)"><g><path d="M 3.25 -4.875 L 0.84375 -1.265625 L -9.625 -8.21875 L -7.21875 -11.828125 Z M -12.296875 -9.859375 C -12.835938 -10.222656 -13.132812 -10.644531 -13.1875 -11.125 C -13.25 -11.601562 -13.0625 -12.175781 -12.625 -12.84375 C -12.175781 -13.519531 -11.710938 -13.921875 -11.234375 -14.046875 C -10.765625 -14.171875 -10.265625 -14.054688 -9.734375 -13.703125 C -8.660156 -12.992188 -8.554688 -11.992188 -9.421875 -10.703125 C -10.265625 -9.429688 -11.222656 -9.148438 -12.296875 -9.859375 Z M -12.296875 -9.859375 "/></g></g></g><g fill="#000000" fill-opacity="1"><g transform="translate(40.261285, 53.3895)"><g><path d="M 3.71875 -4.484375 L 0.953125 -1.15625 L -12.328125 -12.1875 L -9.5625 -15.515625 Z M 3.71875 -4.484375 "/></g></g></g><g fill="#000000" fill-opacity="1"><g transform="translate(43.880516, 48.375161)"><g><path d="M 7.09375 -6.171875 L 2.59375 -11.34375 C 1.488281 -12.625 0.5625 -12.9375 -0.1875 -12.28125 C -0.71875 -11.8125 -0.914062 -11.238281 -0.78125 -10.5625 C -0.644531 -9.894531 -0.125 -9.039062 0.78125 -8 L 4.40625 -3.828125 L 1.125 -0.984375 L -10.203125 -14.015625 L -6.921875 -16.859375 L -5.3125 -15.015625 C -4.582031 -14.171875 -3.796875 -13.171875 -2.953125 -12.015625 L -2.796875 -12.15625 C -2.910156 -12.914062 -2.835938 -13.582031 -2.578125 -14.15625 C -2.328125 -14.738281 -1.921875 -15.273438 -1.359375 -15.765625 C -0.296875 -16.679688 0.789062 -17.085938 1.90625 -16.984375 C 3.03125 -16.890625 4.070312 -16.296875 5.03125 -15.203125 L 10.390625 -9.03125 Z M 7.09375 -6.171875 "/></g></g></g><g fill="#000000" fill-opacity="1"><g transform="translate(54.13725, 39.329139)"><g><path d="M 6.734375 -3.46875 C 4.898438 -2.457031 3.207031 -2.15625 1.65625 -2.5625 C 0.101562 -2.96875 -1.171875 -4.078125 -2.171875 -5.890625 C -3.203125 -7.742188 -3.519531 -9.425781 -3.125 -10.9375 C -2.726562 -12.457031 -1.660156 -13.695312 0.078125 -14.65625 C 1.734375 -15.570312 3.253906 -15.847656 4.640625 -15.484375 C 6.023438 -15.117188 7.164062 -14.125 8.0625 -12.5 L 9 -10.796875 L 2.203125 -7.046875 C 2.554688 -6.453125 3.046875 -6.09375 3.671875 -5.96875 C 4.296875 -5.851562 4.972656 -6 5.703125 -6.40625 C 6.367188 -6.78125 6.945312 -7.1875 7.4375 -7.625 C 7.925781 -8.0625 8.410156 -8.609375 8.890625 -9.265625 L 10.390625 -6.53125 C 9.972656 -5.90625 9.476562 -5.359375 8.90625 -4.890625 C 8.34375 -4.429688 7.617188 -3.957031 6.734375 -3.46875 Z M 1.640625 -12.140625 C 1.191406 -11.898438 0.894531 -11.554688 0.75 -11.109375 C 0.601562 -10.660156 0.671875 -10.117188 0.953125 -9.484375 L 4.21875 -11.28125 C 3.90625 -11.800781 3.515625 -12.140625 3.046875 -12.296875 C 2.585938 -12.460938 2.117188 -12.410156 1.640625 -12.140625 Z M 1.640625 -12.140625 "/></g></g></g><g fill="#000000" fill-opacity="1"><g transform="translate(65.2826, 33.212773)"><g><path d="M 4.484375 -15.03125 C 4.847656 -15.15625 5.203125 -15.242188 5.546875 -15.296875 L 5.796875 -15.328125 L 6.734375 -11.328125 C 6.367188 -11.304688 5.890625 -11.191406 5.296875 -10.984375 C 4.398438 -10.679688 3.816406 -10.253906 3.546875 -9.703125 C 3.273438 -9.160156 3.269531 -8.5 3.53125 -7.71875 L 5.515625 -1.875 L 1.421875 -0.484375 L -2.609375 -12.390625 L 0.4375 -13.421875 L 1.734375 -11.734375 L 1.921875 -11.796875 C 2.054688 -12.546875 2.363281 -13.21875 2.84375 -13.8125 C 3.320312 -14.414062 3.867188 -14.820312 4.484375 -15.03125 Z M 4.484375 -15.03125 "/></g></g></g><g fill="#000000" fill-opacity="1"><g transform="translate(73.532862, 29.435636)"><g><path d="M 16.859375 -1.453125 L 16.265625 -8.25 C 16.191406 -9.101562 16.019531 -9.734375 15.75 -10.140625 C 15.488281 -10.546875 15.101562 -10.726562 14.59375 -10.6875 C 13.9375 -10.632812 13.476562 -10.304688 13.21875 -9.703125 C 12.96875 -9.109375 12.894531 -8.210938 13 -7.015625 L 13.5 -1.171875 L 9.171875 -0.796875 L 8.578125 -7.59375 C 8.503906 -8.445312 8.335938 -9.078125 8.078125 -9.484375 C 7.816406 -9.890625 7.4375 -10.070312 6.9375 -10.03125 C 6.257812 -9.96875 5.789062 -9.617188 5.53125 -8.984375 C 5.28125 -8.347656 5.21875 -7.347656 5.34375 -5.984375 L 5.8125 -0.5 L 1.5 -0.125 L 0.421875 -12.640625 L 3.671875 -12.921875 L 4.34375 -11.421875 L 4.59375 -11.453125 C 4.882812 -12.046875 5.332031 -12.523438 5.9375 -12.890625 C 6.539062 -13.253906 7.242188 -13.46875 8.046875 -13.53125 C 9.847656 -13.6875 11.160156 -13.242188 11.984375 -12.203125 L 12.328125 -12.234375 C 12.628906 -12.773438 13.082031 -13.222656 13.6875 -13.578125 C 14.300781 -13.929688 14.988281 -14.140625 15.75 -14.203125 C 17.226562 -14.328125 18.351562 -14.039062 19.125 -13.34375 C 19.894531 -12.644531 20.347656 -11.519531 20.484375 -9.96875 L 21.1875 -1.828125 Z M 16.859375 -1.453125 "/></g></g></g><g fill="#000000" fill-opacity="1"><g transform="translate(94.23504, 27.97047)"><g><path d="M 7.40625 1.5625 C 5.34375 1.1875 3.835938 0.351562 2.890625 -0.9375 C 1.953125 -2.238281 1.671875 -3.90625 2.046875 -5.9375 C 2.421875 -8.019531 3.238281 -9.523438 4.5 -10.453125 C 5.757812 -11.390625 7.367188 -11.679688 9.328125 -11.328125 C 11.191406 -10.984375 12.539062 -10.234375 13.375 -9.078125 C 14.21875 -7.921875 14.472656 -6.429688 14.140625 -4.609375 L 13.796875 -2.703125 L 6.15625 -4.078125 C 6.0625 -3.390625 6.21875 -2.800781 6.625 -2.3125 C 7.03125 -1.832031 7.648438 -1.519531 8.484375 -1.375 C 9.234375 -1.238281 9.9375 -1.1875 10.59375 -1.21875 C 11.25 -1.25 11.960938 -1.363281 12.734375 -1.5625 L 12.1875 1.5 C 11.46875 1.71875 10.738281 1.828125 10 1.828125 C 9.269531 1.828125 8.40625 1.738281 7.40625 1.5625 Z M 8.953125 -8.390625 C 8.441406 -8.484375 7.988281 -8.398438 7.59375 -8.140625 C 7.195312 -7.878906 6.90625 -7.414062 6.71875 -6.75 L 10.40625 -6.09375 C 10.5 -6.6875 10.414062 -7.191406 10.15625 -7.609375 C 9.894531 -8.023438 9.492188 -8.285156 8.953125 -8.390625 Z M 8.953125 -8.390625 "/></g></g></g><g fill="#000000" fill-opacity="1"><g transform="translate(106.936477, 30.484996)"><g/></g></g><g fill="#000000" fill-opacity="1"><g transform="translate(111.642415, 31.620494)"><g><path d="M 13.828125 -7.375 C 12.898438 -7.851562 11.984375 -7.84375 11.078125 -7.34375 C 10.171875 -6.851562 9.378906 -5.941406 8.703125 -4.609375 C 7.285156 -1.828125 7.632812 0.101562 9.75 1.1875 C 10.382812 1.507812 11.046875 1.738281 11.734375 1.875 C 12.421875 2.007812 13.128906 2.101562 13.859375 2.15625 L 12.1875 5.453125 C 10.707031 5.359375 9.207031 4.925781 7.6875 4.15625 C 5.507812 3.039062 4.160156 1.5625 3.640625 -0.28125 C 3.117188 -2.132812 3.46875 -4.257812 4.6875 -6.65625 C 5.445312 -8.144531 6.394531 -9.316406 7.53125 -10.171875 C 8.675781 -11.023438 9.929688 -11.484375 11.296875 -11.546875 C 12.671875 -11.617188 14.070312 -11.289062 15.5 -10.5625 C 17.0625 -9.769531 18.382812 -8.671875 19.46875 -7.265625 L 16.6875 -4.796875 C 16.289062 -5.316406 15.867188 -5.800781 15.421875 -6.25 C 14.972656 -6.695312 14.441406 -7.070312 13.828125 -7.375 Z M 13.828125 -7.375 "/></g></g></g><g fill="#000000" fill-opacity="1"><g transform="translate(123.475991, 37.482531)"><g><path d="M 14.46875 3.59375 C 13.164062 5.1875 11.722656 6.082031 10.140625 6.28125 C 8.554688 6.488281 6.992188 5.960938 5.453125 4.703125 C 3.972656 3.503906 3.164062 2.085938 3.03125 0.453125 C 2.894531 -1.171875 3.457031 -2.757812 4.71875 -4.3125 C 6.007812 -5.90625 7.441406 -6.789062 9.015625 -6.96875 C 10.585938 -7.15625 12.148438 -6.617188 13.703125 -5.359375 C 14.671875 -4.578125 15.351562 -3.6875 15.75 -2.6875 C 16.144531 -1.6875 16.234375 -0.644531 16.015625 0.4375 C 15.804688 1.519531 15.289062 2.570312 14.46875 3.59375 Z M 8.140625 -1.53125 C 7.453125 -0.6875 7.039062 0.0390625 6.90625 0.65625 C 6.78125 1.28125 6.984375 1.804688 7.515625 2.234375 C 8.035156 2.660156 8.578125 2.738281 9.140625 2.46875 C 9.710938 2.207031 10.34375 1.65625 11.03125 0.8125 C 11.695312 -0.0195312 12.097656 -0.734375 12.234375 -1.328125 C 12.367188 -1.921875 12.171875 -2.4375 11.640625 -2.875 C 11.117188 -3.289062 10.570312 -3.378906 10 -3.140625 C 9.4375 -2.898438 8.816406 -2.363281 8.140625 -1.53125 Z M 8.140625 -1.53125 "/></g></g></g><g fill="#000000" fill-opacity="1"><g transform="translate(133.626937, 45.692681)"><g><path d="M 10.15625 6.09375 C 9.125 6.957031 8.050781 7.257812 6.9375 7 C 5.820312 6.75 4.710938 5.960938 3.609375 4.640625 C 3.003906 3.929688 2.519531 3.28125 2.15625 2.6875 C 1.800781 2.101562 1.492188 1.445312 1.234375 0.71875 L 3.890625 -1.515625 C 4.097656 -0.796875 4.382812 -0.0664062 4.75 0.671875 C 5.113281 1.410156 5.492188 2.019531 5.890625 2.5 C 6.492188 3.21875 6.960938 3.4375 7.296875 3.15625 C 7.472656 3.007812 7.539062 2.78125 7.5 2.46875 C 7.46875 2.15625 7.238281 1.351562 6.8125 0.0625 C 6.4375 -1.113281 6.332031 -2.078125 6.5 -2.828125 C 6.664062 -3.578125 7.097656 -4.242188 7.796875 -4.828125 C 8.703125 -5.585938 9.695312 -5.828125 10.78125 -5.546875 C 11.863281 -5.265625 12.929688 -4.492188 13.984375 -3.234375 C 14.523438 -2.597656 14.957031 -1.941406 15.28125 -1.265625 C 15.601562 -0.597656 15.882812 0.148438 16.125 0.984375 L 13.21875 1.875 C 13.050781 1.257812 12.832031 0.648438 12.5625 0.046875 C 12.289062 -0.554688 12.019531 -1.015625 11.75 -1.328125 C 11.289062 -1.878906 10.925781 -2.046875 10.65625 -1.828125 C 10.488281 -1.691406 10.425781 -1.476562 10.46875 -1.1875 C 10.519531 -0.894531 10.742188 -0.144531 11.140625 1.0625 C 11.429688 1.96875 11.582031 2.695312 11.59375 3.25 C 11.613281 3.8125 11.507812 4.316406 11.28125 4.765625 C 11.050781 5.222656 10.675781 5.664062 10.15625 6.09375 Z M 10.15625 6.09375 "/></g></g></g><g fill="#000000" fill-opacity="1"><g transform="translate(140.65699, 54.026146)"><g><path d="M 6.65625 4.953125 C 6.945312 5.453125 7.425781 5.976562 8.09375 6.53125 L 5.390625 8.140625 C 4.867188 7.773438 4.425781 7.390625 4.0625 6.984375 C 3.707031 6.578125 3.347656 6.066406 2.984375 5.453125 C 2.242188 4.203125 2.015625 3.117188 2.296875 2.203125 C 2.585938 1.285156 3.367188 0.453125 4.640625 -0.296875 L 9.09375 -2.9375 L 8.3125 -4.234375 L 9.828125 -5.140625 L 12 -4.1875 L 14.84375 -4.578125 L 16.296875 -2.125 L 14.125 -0.828125 L 15.6875 1.8125 L 12.890625 3.46875 L 11.328125 0.828125 L 7.109375 3.328125 C 6.410156 3.734375 6.257812 4.273438 6.65625 4.953125 Z M 6.65625 4.953125 "/></g></g></g><g fill="#000000" fill-opacity="1"><g transform="translate(145.56512, 61.760048)"><g><path d="M 3.40625 9.09375 L 4.65625 7.71875 L 4.625 7.640625 C 3.75 7.335938 3.078125 6.945312 2.609375 6.46875 C 2.148438 6 1.753906 5.316406 1.421875 4.421875 C 1.003906 3.304688 1.007812 2.304688 1.4375 1.421875 C 1.863281 0.546875 2.679688 -0.113281 3.890625 -0.5625 C 5.140625 -1.03125 6.234375 -0.945312 7.171875 -0.3125 C 8.109375 0.320312 8.925781 1.457031 9.625 3.09375 L 10.421875 5.03125 L 10.578125 4.96875 C 11.554688 4.601562 11.867188 3.941406 11.515625 2.984375 C 11.191406 2.128906 10.488281 1.148438 9.40625 0.046875 L 11.65625 -2.125 C 12.875 -1.019531 13.875 0.570312 14.65625 2.65625 C 15.21875 4.164062 15.28125 5.472656 14.84375 6.578125 C 14.40625 7.691406 13.519531 8.5 12.1875 9 L 4.453125 11.890625 Z M 4.921875 5.078125 C 5.109375 5.566406 5.421875 5.925781 5.859375 6.15625 C 6.304688 6.394531 6.78125 6.421875 7.28125 6.234375 L 8.1875 5.890625 L 7.796875 4.96875 C 7.253906 3.65625 6.519531 3.171875 5.59375 3.515625 C 4.863281 3.785156 4.640625 4.304688 4.921875 5.078125 Z M 4.921875 5.078125 "/></g></g></g><g fill="#000000" fill-opacity="1"><g transform="translate(149.932531, 74.062911)"><g/></g></g><g fill="#000000" fill-opacity="1"><g transform="translate(151.134197, 79.024713)"><g><path d="M 8.34375 -0.0625 C 9.625 -0.195312 10.640625 0.00390625 11.390625 0.546875 C 12.140625 1.097656 12.578125 1.953125 12.703125 3.109375 C 12.828125 4.273438 12.570312 5.207031 11.9375 5.90625 C 11.300781 6.613281 10.359375 7.03125 9.109375 7.15625 C 7.847656 7.289062 6.832031 7.078125 6.0625 6.515625 C 5.300781 5.953125 4.859375 5.101562 4.734375 3.96875 C 4.617188 2.832031 4.867188 1.910156 5.484375 1.203125 C 6.109375 0.503906 7.0625 0.0820312 8.34375 -0.0625 Z M 13.265625 6.015625 Z M 13.265625 6.015625 "/></g></g></g><g fill="#000000" fill-opacity="1"><g transform="translate(151.959949, 87.049196)"><g/></g></g><g fill="#000000" fill-opacity="1"><g transform="translate(152.50357, 91.809128)"><g><path d="M 8.03125 9.703125 L 6.890625 16.609375 L -1.75 15.1875 C -2.070312 13.195312 -2.050781 11.082031 -1.6875 8.84375 C -1.28125 6.382812 -0.253906 4.597656 1.390625 3.484375 C 3.046875 2.367188 5.203125 2.03125 7.859375 2.46875 C 10.441406 2.894531 12.328125 3.960938 13.515625 5.671875 C 14.710938 7.390625 15.09375 9.578125 14.65625 12.234375 C 14.488281 13.234375 14.234375 14.164062 13.890625 15.03125 C 13.554688 15.894531 13.191406 16.632812 12.796875 17.25 L 9.625 15.3125 C 10.382812 14.257812 10.878906 13.046875 11.109375 11.671875 C 11.316406 10.398438 11.066406 9.351562 10.359375 8.53125 C 9.648438 7.707031 8.535156 7.171875 7.015625 6.921875 C 5.515625 6.671875 4.320312 6.789062 3.4375 7.28125 C 2.550781 7.78125 2.007812 8.613281 1.8125 9.78125 C 1.707031 10.425781 1.675781 11.023438 1.71875 11.578125 L 4.21875 12 L 4.6875 9.15625 Z M 8.03125 9.703125 "/></g></g></g><g fill="#000000" fill-opacity="1"><g transform="translate(150.138741, 106.760214)"><g><path d="M -4.015625 9.65625 L -2.375 9.734375 L -2.265625 9.515625 C -2.648438 8.953125 -2.859375 8.316406 -2.890625 7.609375 C -2.929688 6.898438 -2.785156 6.140625 -2.453125 5.328125 C -1.921875 4.046875 -1.132812 3.203125 -0.09375 2.796875 C 0.9375 2.398438 2.125 2.484375 3.46875 3.046875 L 11.03125 6.1875 L 9.359375 10.1875 L 3.03125 7.546875 C 2.269531 7.234375 1.648438 7.101562 1.171875 7.15625 C 0.691406 7.21875 0.347656 7.492188 0.140625 7.984375 C -0.148438 8.679688 -0.0820312 9.285156 0.34375 9.796875 C 0.769531 10.316406 1.625 10.847656 2.90625 11.390625 L 7.984375 13.5 L 6.328125 17.5 L -5.265625 12.671875 Z M -4.015625 9.65625 "/></g></g></g><g fill="#000000" fill-opacity="1"><g transform="translate(144.561676, 119.58522)"><g><path d="M -3.09375 4.96875 L -0.796875 1.28125 L 9.859375 7.921875 L 7.5625 11.609375 Z M 12.578125 9.5 C 13.128906 9.832031 13.441406 10.238281 13.515625 10.71875 C 13.585938 11.207031 13.414062 11.789062 13 12.46875 C 12.5625 13.15625 12.109375 13.570312 11.640625 13.71875 C 11.179688 13.863281 10.679688 13.769531 10.140625 13.4375 C 9.054688 12.75 8.925781 11.742188 9.75 10.421875 C 10.550781 9.117188 11.492188 8.8125 12.578125 9.5 Z M 12.578125 9.5 "/></g></g></g><g fill="#000000" fill-opacity="1"><g transform="translate(141.115102, 125.200218)"><g><path d="M -3.59375 4.59375 L -0.921875 1.1875 L 12.6875 11.8125 L 10.015625 15.21875 Z M -3.59375 4.59375 "/></g></g></g><g fill="#000000" fill-opacity="1"><g transform="translate(137.645207, 130.314151)"><g><path d="M -6.921875 6.375 L -2.265625 11.421875 C -1.128906 12.660156 -0.191406 12.941406 0.546875 12.265625 C 1.066406 11.785156 1.25 11.207031 1.09375 10.53125 C 0.9375 9.863281 0.394531 9.023438 -0.53125 8.015625 L -4.28125 3.953125 L -1.109375 1.015625 L 10.59375 13.703125 L 7.421875 16.640625 L 5.765625 14.84375 C 5.003906 14.019531 4.1875 13.046875 3.3125 11.921875 L 3.15625 12.0625 C 3.289062 12.820312 3.238281 13.492188 3 14.078125 C 2.769531 14.660156 2.378906 15.207031 1.828125 15.71875 C 0.796875 16.675781 -0.28125 17.117188 -1.40625 17.046875 C -2.539062 16.972656 -3.597656 16.40625 -4.578125 15.34375 L -10.125 9.328125 Z M -6.921875 6.375 "/></g></g></g><g fill="#000000" fill-opacity="1"><g transform="translate(127.659612, 139.657971)"><g><path d="M -6.625 3.65625 C -4.820312 2.59375 -3.140625 2.242188 -1.578125 2.609375 C -0.0234375 2.972656 1.273438 4.046875 2.328125 5.828125 C 3.410156 7.648438 3.78125 9.320312 3.4375 10.84375 C 3.09375 12.375 2.066406 13.644531 0.359375 14.65625 C -1.273438 15.625 -2.785156 15.941406 -4.171875 15.609375 C -5.566406 15.285156 -6.734375 14.328125 -7.671875 12.734375 L -8.671875 11.0625 L -2 7.109375 C -2.375 6.523438 -2.867188 6.179688 -3.484375 6.078125 C -4.109375 5.984375 -4.785156 6.15625 -5.515625 6.59375 C -6.171875 6.976562 -6.738281 7.394531 -7.21875 7.84375 C -7.695312 8.289062 -8.164062 8.851562 -8.625 9.53125 L -10.203125 6.859375 C -9.796875 6.191406 -9.3125 5.617188 -8.75 5.140625 C -8.195312 4.671875 -7.488281 4.175781 -6.625 3.65625 Z M -1.28125 12.1875 C -0.84375 11.925781 -0.554688 11.570312 -0.421875 11.125 C -0.296875 10.675781 -0.378906 10.140625 -0.671875 9.515625 L -3.875 11.40625 C -3.5625 11.914062 -3.164062 12.242188 -2.6875 12.390625 C -2.21875 12.535156 -1.75 12.46875 -1.28125 12.1875 Z M -1.28125 12.1875 "/></g></g></g><g fill="#000000" fill-opacity="1"><g transform="translate(116.699481, 146.103207)"><g><path d="M -4.0625 15.171875 C -4.414062 15.296875 -4.757812 15.390625 -5.09375 15.453125 L -5.34375 15.484375 L -6.40625 11.515625 C -6.039062 11.484375 -5.566406 11.359375 -4.984375 11.140625 C -4.085938 10.804688 -3.515625 10.359375 -3.265625 9.796875 C -3.015625 9.242188 -3.03125 8.582031 -3.3125 7.8125 L -5.46875 2.03125 L -1.40625 0.515625 L 2.96875 12.296875 L -0.046875 13.421875 L -1.375 11.796875 L -1.5625 11.859375 C -1.675781 12.609375 -1.96875 13.289062 -2.4375 13.90625 C -2.90625 14.519531 -3.445312 14.941406 -4.0625 15.171875 Z M -4.0625 15.171875 "/></g></g></g><g fill="#000000" fill-opacity="1"><g transform="translate(108.564002, 150.110768)"><g><path d="M -16.8125 1.953125 L -16.03125 8.734375 C -15.925781 9.585938 -15.734375 10.210938 -15.453125 10.609375 C -15.179688 11.003906 -14.789062 11.171875 -14.28125 11.109375 C -13.625 11.035156 -13.171875 10.695312 -12.921875 10.09375 C -12.679688 9.488281 -12.632812 8.582031 -12.78125 7.375 L -13.453125 1.5625 L -9.140625 1.0625 L -8.359375 7.84375 C -8.253906 8.695312 -8.066406 9.320312 -7.796875 9.71875 C -7.523438 10.113281 -7.144531 10.28125 -6.65625 10.21875 C -5.976562 10.144531 -5.519531 9.785156 -5.28125 9.140625 C -5.039062 8.503906 -5 7.503906 -5.15625 6.140625 L -5.796875 0.671875 L -1.484375 0.171875 L -0.03125 12.65625 L -3.28125 13.03125 L -4.015625 11.546875 L -4.265625 11.578125 C -4.515625 12.191406 -4.941406 12.6875 -5.546875 13.0625 C -6.148438 13.445312 -6.847656 13.6875 -7.640625 13.78125 C -9.441406 13.988281 -10.765625 13.582031 -11.609375 12.5625 L -11.953125 12.59375 C -12.242188 13.144531 -12.6875 13.601562 -13.28125 13.96875 C -13.882812 14.34375 -14.566406 14.578125 -15.328125 14.671875 C -16.804688 14.835938 -17.941406 14.582031 -18.734375 13.90625 C -19.523438 13.226562 -20.007812 12.117188 -20.1875 10.578125 L -21.125 2.453125 Z M -16.8125 1.953125 "/></g></g></g><g fill="#000000" fill-opacity="1"><g transform="translate(87.914134, 152.193877)"><g><path d="M -7.453125 -1.34375 C -5.378906 -1.03125 -3.851562 -0.238281 -2.875 1.03125 C -1.894531 2.300781 -1.554688 3.957031 -1.859375 6 C -2.171875 8.09375 -2.941406 9.617188 -4.171875 10.578125 C -5.410156 11.546875 -7.015625 11.882812 -8.984375 11.59375 C -10.859375 11.3125 -12.234375 10.601562 -13.109375 9.46875 C -13.984375 8.332031 -14.28125 6.847656 -14 5.015625 L -13.71875 3.09375 L -6.03125 4.25 C -5.957031 3.5625 -6.128906 2.984375 -6.546875 2.515625 C -6.960938 2.046875 -7.585938 1.75 -8.421875 1.625 C -9.171875 1.507812 -9.875 1.476562 -10.53125 1.53125 C -11.1875 1.582031 -11.90625 1.71875 -12.6875 1.9375 L -12.234375 -1.140625 C -11.515625 -1.378906 -10.785156 -1.507812 -10.046875 -1.53125 C -9.316406 -1.550781 -8.453125 -1.488281 -7.453125 -1.34375 Z M -8.703125 8.640625 C -8.191406 8.722656 -7.738281 8.628906 -7.34375 8.359375 C -6.957031 8.097656 -6.6875 7.625 -6.53125 6.9375 L -10.21875 6.390625 C -10.289062 6.992188 -10.191406 7.5 -9.921875 7.90625 C -9.648438 8.320312 -9.242188 8.566406 -8.703125 8.640625 Z M -8.703125 8.640625 "/></g></g></g><g fill="#000000" fill-opacity="1"><g transform="translate(75.144183, 150.060954)"><g/></g></g><g fill="#000000" fill-opacity="1"><g transform="translate(70.406676, 149.055773)"><g><path d="M -13.609375 7.796875 C -12.671875 8.234375 -11.753906 8.191406 -10.859375 7.671875 C -9.960938 7.148438 -9.191406 6.210938 -8.546875 4.859375 C -7.210938 2.023438 -7.617188 0.101562 -9.765625 -0.90625 C -10.421875 -1.21875 -11.09375 -1.425781 -11.78125 -1.53125 C -12.46875 -1.632812 -13.179688 -1.707031 -13.921875 -1.75 L -12.328125 -5.09375 C -10.859375 -5.050781 -9.347656 -4.664062 -7.796875 -3.9375 C -5.585938 -2.882812 -4.195312 -1.441406 -3.625 0.390625 C -3.050781 2.222656 -3.34375 4.351562 -4.5 6.78125 C -5.207031 8.300781 -6.117188 9.503906 -7.234375 10.390625 C -8.347656 11.285156 -9.585938 11.785156 -10.953125 11.890625 C -12.316406 11.992188 -13.726562 11.703125 -15.1875 11.015625 C -16.769531 10.273438 -18.125 9.21875 -19.25 7.84375 L -16.546875 5.296875 C -16.128906 5.804688 -15.691406 6.273438 -15.234375 6.703125 C -14.773438 7.128906 -14.234375 7.492188 -13.609375 7.796875 Z M -13.609375 7.796875 "/></g></g></g><g fill="#000000" fill-opacity="1"><g transform="translate(58.405442, 143.54626)"><g><path d="M -14.5625 -3.171875 C -13.320312 -4.796875 -11.910156 -5.734375 -10.328125 -5.984375 C -8.753906 -6.234375 -7.175781 -5.753906 -5.59375 -4.546875 C -4.082031 -3.390625 -3.234375 -2 -3.046875 -0.375 C -2.859375 1.238281 -3.367188 2.84375 -4.578125 4.4375 C -5.828125 6.070312 -7.234375 7.003906 -8.796875 7.234375 C -10.367188 7.460938 -11.953125 6.972656 -13.546875 5.765625 C -14.523438 5.015625 -15.226562 4.144531 -15.65625 3.15625 C -16.09375 2.164062 -16.21875 1.125 -16.03125 0.03125 C -15.851562 -1.0625 -15.363281 -2.128906 -14.5625 -3.171875 Z M -8.09375 1.765625 C -7.4375 0.898438 -7.050781 0.160156 -6.9375 -0.453125 C -6.820312 -1.078125 -7.039062 -1.597656 -7.59375 -2.015625 C -8.125 -2.410156 -8.664062 -2.472656 -9.21875 -2.203125 C -9.78125 -1.929688 -10.390625 -1.363281 -11.046875 -0.5 C -11.703125 0.351562 -12.082031 1.082031 -12.1875 1.6875 C -12.300781 2.289062 -12.082031 2.800781 -11.53125 3.21875 C -11 3.613281 -10.457031 3.6875 -9.90625 3.4375 C -9.351562 3.1875 -8.75 2.628906 -8.09375 1.765625 Z M -8.09375 1.765625 "/></g></g></g><g fill="#000000" fill-opacity="1"><g transform="translate(48.01699, 135.648718)"><g><path d="M -10.34375 -5.8125 C -9.332031 -6.707031 -8.265625 -7.035156 -7.140625 -6.796875 C -6.023438 -6.566406 -4.894531 -5.8125 -3.75 -4.53125 C -3.132812 -3.832031 -2.632812 -3.195312 -2.25 -2.625 C -1.863281 -2.050781 -1.53125 -1.398438 -1.25 -0.671875 L -3.84375 1.625 C -4.0625 0.914062 -4.367188 0.195312 -4.765625 -0.53125 C -5.160156 -1.257812 -5.566406 -1.859375 -5.984375 -2.328125 C -6.597656 -3.023438 -7.066406 -3.226562 -7.390625 -2.9375 C -7.554688 -2.789062 -7.613281 -2.5625 -7.5625 -2.25 C -7.519531 -1.945312 -7.269531 -1.144531 -6.8125 0.15625 C -6.40625 1.320312 -6.269531 2.273438 -6.40625 3.015625 C -6.550781 3.765625 -6.96875 4.441406 -7.65625 5.046875 C -8.53125 5.828125 -9.507812 6.09375 -10.59375 5.84375 C -11.6875 5.601562 -12.785156 4.867188 -13.890625 3.640625 C -14.441406 3.015625 -14.890625 2.375 -15.234375 1.71875 C -15.578125 1.0625 -15.878906 0.320312 -16.140625 -0.5 L -13.265625 -1.46875 C -13.078125 -0.875 -12.835938 -0.28125 -12.546875 0.3125 C -12.253906 0.914062 -11.96875 1.367188 -11.6875 1.671875 C -11.21875 2.203125 -10.859375 2.359375 -10.609375 2.140625 C -10.441406 1.992188 -10.382812 1.773438 -10.4375 1.484375 C -10.488281 1.191406 -10.734375 0.453125 -11.171875 -0.734375 C -11.492188 -1.628906 -11.664062 -2.351562 -11.6875 -2.90625 C -11.71875 -3.46875 -11.625 -3.976562 -11.40625 -4.4375 C -11.195312 -4.90625 -10.84375 -5.363281 -10.34375 -5.8125 Z M -10.34375 -5.8125 "/></g></g></g><g fill="#000000" fill-opacity="1"><g transform="translate(40.744162, 127.516451)"><g><path d="M -6.796875 -4.75 C -7.109375 -5.238281 -7.609375 -5.75 -8.296875 -6.28125 L -5.625 -7.96875 C -5.09375 -7.625 -4.640625 -7.253906 -4.265625 -6.859375 C -3.890625 -6.460938 -3.515625 -5.960938 -3.140625 -5.359375 C -2.359375 -4.128906 -2.097656 -3.050781 -2.359375 -2.125 C -2.617188 -1.207031 -3.375 -0.351562 -4.625 0.4375 L -9 3.203125 L -8.1875 4.484375 L -9.671875 5.421875 L -11.859375 4.53125 L -14.703125 5 L -16.21875 2.59375 L -14.078125 1.234375 L -15.71875 -1.359375 L -12.984375 -3.09375 L -11.34375 -0.5 L -7.203125 -3.125 C -6.515625 -3.550781 -6.378906 -4.09375 -6.796875 -4.75 Z M -6.796875 -4.75 "/></g></g></g><g fill="#000000" fill-opacity="1"><g transform="translate(35.610243, 119.937397)"><g><path d="M -3.671875 -8.984375 L -4.875 -7.578125 L -4.84375 -7.5 C -3.957031 -7.226562 -3.273438 -6.859375 -2.796875 -6.390625 C -2.328125 -5.929688 -1.910156 -5.257812 -1.546875 -4.375 C -1.097656 -3.269531 -1.070312 -2.269531 -1.46875 -1.375 C -1.875 -0.488281 -2.675781 0.195312 -3.875 0.6875 C -5.101562 1.1875 -6.195312 1.128906 -7.15625 0.515625 C -8.113281 -0.0859375 -8.960938 -1.191406 -9.703125 -2.796875 L -10.5625 -4.71875 L -10.71875 -4.640625 C -11.6875 -4.253906 -11.976562 -3.59375 -11.59375 -2.65625 C -11.25 -1.800781 -10.519531 -0.835938 -9.40625 0.234375 L -11.578125 2.484375 C -12.828125 1.398438 -13.875 -0.171875 -14.71875 -2.234375 C -15.332031 -3.722656 -15.4375 -5.03125 -15.03125 -6.15625 C -14.625 -7.28125 -13.757812 -8.113281 -12.4375 -8.65625 L -4.796875 -11.765625 Z M -5.09375 -4.921875 C -5.289062 -5.410156 -5.613281 -5.765625 -6.0625 -5.984375 C -6.507812 -6.203125 -6.976562 -6.210938 -7.46875 -6.015625 L -8.359375 -5.640625 L -7.953125 -4.75 C -7.359375 -3.4375 -6.601562 -2.96875 -5.6875 -3.34375 C -4.976562 -3.632812 -4.78125 -4.160156 -5.09375 -4.921875 Z M -5.09375 -4.921875 "/></g></g></g><g fill="#000000" fill-opacity="1"><g transform="translate(30.882044, 107.769617)"><g/></g></g><g fill="#000000" fill-opacity="1"><g transform="translate(29.534503, 102.838483)"><g><path d="M -8.328125 0.296875 C -9.609375 0.472656 -10.628906 0.300781 -11.390625 -0.21875 C -12.160156 -0.738281 -12.628906 -1.578125 -12.796875 -2.734375 C -12.953125 -3.890625 -12.722656 -4.828125 -12.109375 -5.546875 C -11.492188 -6.265625 -10.5625 -6.710938 -9.3125 -6.890625 C -8.050781 -7.054688 -7.03125 -6.867188 -6.25 -6.328125 C -5.46875 -5.785156 -5.003906 -4.953125 -4.859375 -3.828125 C -4.703125 -2.691406 -4.921875 -1.765625 -5.515625 -1.046875 C -6.109375 -0.328125 -7.046875 0.117188 -8.328125 0.296875 Z M -13.453125 -5.640625 Z M -13.453125 -5.640625 "/></g></g></g><g fill="#000000" fill-opacity="1"><g transform="translate(52.550084, 121.751326)"><g><path d="M 24.363281 -33.804688 L 24.363281 -61.226562 C 11.328125 -57.359375 4.046875 -47.109375 4.046875 -30.925781 C 4.046875 -9.800781 14.296875 1.078125 34.882812 1.078125 C 39.917969 1.078125 44.324219 0.359375 48.1875 -0.988281 L 42.886719 -14.296875 C 41.535156 -13.933594 40.097656 -13.753906 38.570312 -13.753906 C 29.128906 -13.753906 24.363281 -19.058594 24.363281 -28.050781 Z M 37.761719 -62.933594 C 36.769531 -62.933594 35.78125 -62.933594 34.792969 -62.84375 L 34.792969 -47.738281 C 35.960938 -48.007812 37.222656 -48.097656 38.570312 -48.097656 C 44.863281 -48.097656 50.257812 -44.773438 50.257812 -39.46875 L 69.226562 -39.46875 C 69.226562 -55.023438 55.113281 -62.933594 37.761719 -62.933594 Z M 58.976562 0 L 69.226562 0 L 69.226562 -34.523438 L 36.230469 -34.523438 L 36.230469 -21.9375 L 50.257812 -21.9375 Z M 58.976562 0 "/></g></g></g></svg>